<mxfile host="app.diagrams.net" modified="2021-03-24T04:09:34.582Z" agent="5.0 (Macintosh; Intel Mac OS X 11_2_3) AppleWebKit/537.36 (KHTML, like Gecko) Chrome/89.0.4389.90 Safari/537.36" etag="95vPbC4zWaENGpCnbvRl" version="14.4.7" type="github">
  <diagram id="rHwkCB97Bu0sbsf6Yo8x" name="Page-1">
    <mxGraphModel dx="599" dy="738" grid="1" gridSize="10" guides="1" tooltips="1" connect="1" arrows="1" fold="1" page="1" pageScale="1" pageWidth="827" pageHeight="1169" math="0" shadow="0">
      <root>
        <mxCell id="0" />
        <mxCell id="1" parent="0" />
        <mxCell id="iA2o2llxOR7NwnTCzI-V-1" style="rounded=0;orthogonalLoop=1;jettySize=auto;html=1;exitX=0.5;exitY=1;exitDx=0;exitDy=0;entryX=0.75;entryY=0;entryDx=0;entryDy=0;fillColor=#CCCCCC;" edge="1" parent="1" source="iA2o2llxOR7NwnTCzI-V-2" target="iA2o2llxOR7NwnTCzI-V-3">
          <mxGeometry relative="1" as="geometry" />
        </mxCell>
        <mxCell id="iA2o2llxOR7NwnTCzI-V-2" value="" style="shape=ext;rounded=1;html=1;whiteSpace=wrap;dashed=1;dashPattern=1 4;" vertex="1" parent="1">
          <mxGeometry x="1293" y="260" width="197" height="290" as="geometry" />
        </mxCell>
        <mxCell id="iA2o2llxOR7NwnTCzI-V-3" value="" style="shape=ext;rounded=1;html=1;whiteSpace=wrap;dashed=1;dashPattern=1 4;" vertex="1" parent="1">
          <mxGeometry x="860" y="620" width="710" height="330" as="geometry" />
        </mxCell>
        <mxCell id="iA2o2llxOR7NwnTCzI-V-4" style="rounded=0;orthogonalLoop=1;jettySize=auto;html=1;exitX=0.5;exitY=1;exitDx=0;exitDy=0;entryX=0.25;entryY=0;entryDx=0;entryDy=0;fillColor=#CCCCCC;" edge="1" parent="1" source="iA2o2llxOR7NwnTCzI-V-5" target="iA2o2llxOR7NwnTCzI-V-3">
          <mxGeometry relative="1" as="geometry" />
        </mxCell>
        <mxCell id="iA2o2llxOR7NwnTCzI-V-5" value="" style="shape=ext;rounded=1;html=1;whiteSpace=wrap;dashed=1;dashPattern=1 4;" vertex="1" parent="1">
          <mxGeometry x="856" y="260" width="360" height="290" as="geometry" />
        </mxCell>
        <mxCell id="iA2o2llxOR7NwnTCzI-V-6" value="" style="endArrow=none;dashed=1;html=1;" edge="1" parent="1">
          <mxGeometry width="50" height="50" relative="1" as="geometry">
            <mxPoint x="839.9999999999995" y="950" as="sourcePoint" />
            <mxPoint x="839.9999999999995" y="260" as="targetPoint" />
          </mxGeometry>
        </mxCell>
        <mxCell id="iA2o2llxOR7NwnTCzI-V-7" style="rounded=0;orthogonalLoop=1;jettySize=auto;html=1;exitX=1;exitY=1;exitDx=0;exitDy=0;entryX=0.5;entryY=0;entryDx=0;entryDy=0;fillColor=#E6E6E6;" edge="1" parent="1" source="iA2o2llxOR7NwnTCzI-V-8" target="iA2o2llxOR7NwnTCzI-V-10">
          <mxGeometry relative="1" as="geometry" />
        </mxCell>
        <mxCell id="iA2o2llxOR7NwnTCzI-V-8" value="业务结果汇总展示" style="rounded=0;whiteSpace=wrap;html=1;fillColor=#E6E6E6;" vertex="1" parent="1">
          <mxGeometry x="980" y="280" width="120" height="60" as="geometry" />
        </mxCell>
        <mxCell id="iA2o2llxOR7NwnTCzI-V-9" style="rounded=0;orthogonalLoop=1;jettySize=auto;html=1;exitX=0.5;exitY=1;exitDx=0;exitDy=0;entryX=0.5;entryY=0;entryDx=0;entryDy=0;" edge="1" parent="1" source="iA2o2llxOR7NwnTCzI-V-10" target="iA2o2llxOR7NwnTCzI-V-12">
          <mxGeometry relative="1" as="geometry" />
        </mxCell>
        <mxCell id="iA2o2llxOR7NwnTCzI-V-10" value="效果评估/打标" style="rounded=0;whiteSpace=wrap;html=1;" vertex="1" parent="1">
          <mxGeometry x="1080" y="370" width="120" height="60" as="geometry" />
        </mxCell>
        <mxCell id="iA2o2llxOR7NwnTCzI-V-11" style="rounded=0;orthogonalLoop=1;jettySize=auto;html=1;exitX=0;exitY=0.5;exitDx=0;exitDy=0;" edge="1" parent="1" source="iA2o2llxOR7NwnTCzI-V-12" target="iA2o2llxOR7NwnTCzI-V-14">
          <mxGeometry relative="1" as="geometry" />
        </mxCell>
        <mxCell id="iA2o2llxOR7NwnTCzI-V-12" value="离/在线数据分析" style="rounded=0;whiteSpace=wrap;html=1;" vertex="1" parent="1">
          <mxGeometry x="1080" y="480" width="120" height="60" as="geometry" />
        </mxCell>
        <mxCell id="iA2o2llxOR7NwnTCzI-V-13" style="rounded=0;orthogonalLoop=1;jettySize=auto;html=1;exitX=0.5;exitY=0;exitDx=0;exitDy=0;entryX=0.5;entryY=1;entryDx=0;entryDy=0;" edge="1" parent="1" source="iA2o2llxOR7NwnTCzI-V-14" target="iA2o2llxOR7NwnTCzI-V-21">
          <mxGeometry relative="1" as="geometry" />
        </mxCell>
        <mxCell id="iA2o2llxOR7NwnTCzI-V-14" value="规则更新" style="rounded=0;whiteSpace=wrap;html=1;" vertex="1" parent="1">
          <mxGeometry x="900" y="480" width="120" height="60" as="geometry" />
        </mxCell>
        <mxCell id="iA2o2llxOR7NwnTCzI-V-15" value="" style="edgeStyle=orthogonalEdgeStyle;rounded=0;orthogonalLoop=1;jettySize=auto;html=1;" edge="1" parent="1" source="iA2o2llxOR7NwnTCzI-V-19" target="iA2o2llxOR7NwnTCzI-V-25">
          <mxGeometry relative="1" as="geometry" />
        </mxCell>
        <mxCell id="iA2o2llxOR7NwnTCzI-V-16" value="" style="edgeStyle=orthogonalEdgeStyle;rounded=0;orthogonalLoop=1;jettySize=auto;html=1;exitX=0.5;exitY=1;exitDx=0;exitDy=0;" edge="1" parent="1" source="iA2o2llxOR7NwnTCzI-V-19" target="iA2o2llxOR7NwnTCzI-V-33">
          <mxGeometry relative="1" as="geometry">
            <Array as="points">
              <mxPoint x="930" y="750" />
            </Array>
          </mxGeometry>
        </mxCell>
        <mxCell id="iA2o2llxOR7NwnTCzI-V-17" value="" style="edgeStyle=orthogonalEdgeStyle;rounded=0;orthogonalLoop=1;jettySize=auto;html=1;exitX=0.5;exitY=1;exitDx=0;exitDy=0;" edge="1" parent="1" source="iA2o2llxOR7NwnTCzI-V-19" target="iA2o2llxOR7NwnTCzI-V-34">
          <mxGeometry relative="1" as="geometry">
            <Array as="points">
              <mxPoint x="930" y="830" />
            </Array>
          </mxGeometry>
        </mxCell>
        <mxCell id="iA2o2llxOR7NwnTCzI-V-18" value="" style="edgeStyle=orthogonalEdgeStyle;rounded=0;orthogonalLoop=1;jettySize=auto;html=1;exitX=0.5;exitY=1;exitDx=0;exitDy=0;" edge="1" parent="1" source="iA2o2llxOR7NwnTCzI-V-19" target="iA2o2llxOR7NwnTCzI-V-35">
          <mxGeometry relative="1" as="geometry">
            <Array as="points">
              <mxPoint x="930" y="910" />
            </Array>
          </mxGeometry>
        </mxCell>
        <mxCell id="iA2o2llxOR7NwnTCzI-V-19" value="数据拉取规则" style="rounded=0;whiteSpace=wrap;html=1;" vertex="1" parent="1">
          <mxGeometry x="870" y="645" width="120" height="60" as="geometry" />
        </mxCell>
        <mxCell id="iA2o2llxOR7NwnTCzI-V-20" style="rounded=0;orthogonalLoop=1;jettySize=auto;html=1;exitX=0.5;exitY=0;exitDx=0;exitDy=0;entryX=0;entryY=1;entryDx=0;entryDy=0;fillColor=#E6E6E6;" edge="1" parent="1" source="iA2o2llxOR7NwnTCzI-V-21" target="iA2o2llxOR7NwnTCzI-V-8">
          <mxGeometry relative="1" as="geometry" />
        </mxCell>
        <mxCell id="iA2o2llxOR7NwnTCzI-V-21" value="&lt;span&gt;离/在线业务规则验证&lt;/span&gt;" style="rounded=0;whiteSpace=wrap;html=1;" vertex="1" parent="1">
          <mxGeometry x="900" y="370" width="120" height="60" as="geometry" />
        </mxCell>
        <mxCell id="iA2o2llxOR7NwnTCzI-V-22" value="" style="edgeStyle=orthogonalEdgeStyle;rounded=0;orthogonalLoop=1;jettySize=auto;html=1;" edge="1" parent="1" source="iA2o2llxOR7NwnTCzI-V-25" target="iA2o2llxOR7NwnTCzI-V-30">
          <mxGeometry relative="1" as="geometry" />
        </mxCell>
        <mxCell id="iA2o2llxOR7NwnTCzI-V-23" style="edgeStyle=orthogonalEdgeStyle;rounded=0;orthogonalLoop=1;jettySize=auto;html=1;exitX=0.5;exitY=1;exitDx=0;exitDy=0;entryX=0;entryY=0.5;entryDx=0;entryDy=0;" edge="1" parent="1" source="iA2o2llxOR7NwnTCzI-V-25" target="iA2o2llxOR7NwnTCzI-V-36">
          <mxGeometry relative="1" as="geometry" />
        </mxCell>
        <mxCell id="iA2o2llxOR7NwnTCzI-V-24" style="edgeStyle=orthogonalEdgeStyle;rounded=0;orthogonalLoop=1;jettySize=auto;html=1;exitX=0.5;exitY=1;exitDx=0;exitDy=0;entryX=0;entryY=0.5;entryDx=0;entryDy=0;" edge="1" parent="1" source="iA2o2llxOR7NwnTCzI-V-25" target="iA2o2llxOR7NwnTCzI-V-37">
          <mxGeometry relative="1" as="geometry" />
        </mxCell>
        <mxCell id="iA2o2llxOR7NwnTCzI-V-25" value="模型组装策略" style="rounded=0;whiteSpace=wrap;html=1;" vertex="1" parent="1">
          <mxGeometry x="1030" y="645" width="120" height="60" as="geometry" />
        </mxCell>
        <mxCell id="iA2o2llxOR7NwnTCzI-V-26" value="" style="edgeStyle=orthogonalEdgeStyle;rounded=0;orthogonalLoop=1;jettySize=auto;html=1;" edge="1" parent="1" source="iA2o2llxOR7NwnTCzI-V-30" target="iA2o2llxOR7NwnTCzI-V-32">
          <mxGeometry relative="1" as="geometry" />
        </mxCell>
        <mxCell id="iA2o2llxOR7NwnTCzI-V-27" style="edgeStyle=orthogonalEdgeStyle;rounded=0;orthogonalLoop=1;jettySize=auto;html=1;exitX=0.5;exitY=1;exitDx=0;exitDy=0;entryX=0;entryY=0.5;entryDx=0;entryDy=0;" edge="1" parent="1" source="iA2o2llxOR7NwnTCzI-V-30" target="iA2o2llxOR7NwnTCzI-V-39">
          <mxGeometry relative="1" as="geometry" />
        </mxCell>
        <mxCell id="iA2o2llxOR7NwnTCzI-V-28" style="edgeStyle=orthogonalEdgeStyle;rounded=0;orthogonalLoop=1;jettySize=auto;html=1;exitX=0.5;exitY=1;exitDx=0;exitDy=0;entryX=0;entryY=0.5;entryDx=0;entryDy=0;" edge="1" parent="1" source="iA2o2llxOR7NwnTCzI-V-30" target="iA2o2llxOR7NwnTCzI-V-40">
          <mxGeometry relative="1" as="geometry" />
        </mxCell>
        <mxCell id="iA2o2llxOR7NwnTCzI-V-29" style="edgeStyle=orthogonalEdgeStyle;rounded=0;orthogonalLoop=1;jettySize=auto;html=1;exitX=0.5;exitY=1;exitDx=0;exitDy=0;entryX=0;entryY=0.5;entryDx=0;entryDy=0;" edge="1" parent="1" source="iA2o2llxOR7NwnTCzI-V-30" target="iA2o2llxOR7NwnTCzI-V-38">
          <mxGeometry relative="1" as="geometry" />
        </mxCell>
        <mxCell id="iA2o2llxOR7NwnTCzI-V-30" value="影响面分析策略" style="rounded=0;whiteSpace=wrap;html=1;" vertex="1" parent="1">
          <mxGeometry x="1189" y="645" width="120" height="60" as="geometry" />
        </mxCell>
        <mxCell id="iA2o2llxOR7NwnTCzI-V-31" style="edgeStyle=orthogonalEdgeStyle;rounded=0;orthogonalLoop=1;jettySize=auto;html=1;exitX=0.5;exitY=1;exitDx=0;exitDy=0;entryX=0;entryY=0.5;entryDx=0;entryDy=0;" edge="1" parent="1" source="iA2o2llxOR7NwnTCzI-V-32" target="iA2o2llxOR7NwnTCzI-V-41">
          <mxGeometry relative="1" as="geometry" />
        </mxCell>
        <mxCell id="iA2o2llxOR7NwnTCzI-V-32" value="结论决策策略" style="rounded=0;whiteSpace=wrap;html=1;" vertex="1" parent="1">
          <mxGeometry x="1340" y="645" width="120" height="60" as="geometry" />
        </mxCell>
        <mxCell id="iA2o2llxOR7NwnTCzI-V-33" value="进程内采集策略选择&lt;br&gt;（选择变更场景对应的采集方式）" style="rounded=0;whiteSpace=wrap;html=1;" vertex="1" parent="1">
          <mxGeometry x="949" y="720" width="120" height="60" as="geometry" />
        </mxCell>
        <mxCell id="iA2o2llxOR7NwnTCzI-V-34" value="数据管道配置&lt;br&gt;（配置模型对应的数据来源）" style="rounded=0;whiteSpace=wrap;html=1;" vertex="1" parent="1">
          <mxGeometry x="949" y="800" width="120" height="60" as="geometry" />
        </mxCell>
        <mxCell id="iA2o2llxOR7NwnTCzI-V-35" value="更新模型&lt;br&gt;（根据业务实体规则升级，更新模型）" style="rounded=0;whiteSpace=wrap;html=1;" vertex="1" parent="1">
          <mxGeometry x="949" y="880" width="120" height="60" as="geometry" />
        </mxCell>
        <mxCell id="iA2o2llxOR7NwnTCzI-V-36" value="Trace关系清洗策略&lt;br&gt;（选择将Trace数据映射到拓扑的规则）" style="rounded=0;whiteSpace=wrap;html=1;" vertex="1" parent="1">
          <mxGeometry x="1110" y="720" width="120" height="60" as="geometry" />
        </mxCell>
        <mxCell id="iA2o2llxOR7NwnTCzI-V-37" value="进程内采集清洗策略&lt;br&gt;（选择将进程内采集数据映射到拓扑的规则）" style="rounded=0;whiteSpace=wrap;html=1;" vertex="1" parent="1">
          <mxGeometry x="1110" y="800" width="120" height="60" as="geometry" />
        </mxCell>
        <mxCell id="iA2o2llxOR7NwnTCzI-V-38" value="SPI注册&lt;br&gt;（业务变更影响面分析结果接口）" style="rounded=0;whiteSpace=wrap;html=1;" vertex="1" parent="1">
          <mxGeometry x="1270" y="720" width="120" height="60" as="geometry" />
        </mxCell>
        <mxCell id="iA2o2llxOR7NwnTCzI-V-39" value="业务视图分析策略&lt;br&gt;（容量、通用中间件基础设施变更、SaaS变更不同策略）" style="rounded=0;whiteSpace=wrap;html=1;" vertex="1" parent="1">
          <mxGeometry x="1270" y="800" width="120" height="60" as="geometry" />
        </mxCell>
        <mxCell id="iA2o2llxOR7NwnTCzI-V-40" value="自定义分析策略&lt;br&gt;（特殊的业务场景自行实现分析策略）" style="rounded=0;whiteSpace=wrap;html=1;" vertex="1" parent="1">
          <mxGeometry x="1270" y="880" width="120" height="60" as="geometry" />
        </mxCell>
        <mxCell id="iA2o2llxOR7NwnTCzI-V-41" value="特定应用阈值配置&lt;br&gt;（变更拦截&amp;amp;容量风险识别，调整策略阈值降噪提升召回）" style="rounded=0;whiteSpace=wrap;html=1;" vertex="1" parent="1">
          <mxGeometry x="1420" y="720" width="120" height="60" as="geometry" />
        </mxCell>
        <mxCell id="iA2o2llxOR7NwnTCzI-V-42" value="" style="edgeStyle=orthogonalEdgeStyle;rounded=0;orthogonalLoop=1;jettySize=auto;html=1;" edge="1" parent="1" source="iA2o2llxOR7NwnTCzI-V-44" target="iA2o2llxOR7NwnTCzI-V-46">
          <mxGeometry relative="1" as="geometry" />
        </mxCell>
        <mxCell id="iA2o2llxOR7NwnTCzI-V-43" style="edgeStyle=orthogonalEdgeStyle;rounded=0;orthogonalLoop=1;jettySize=auto;html=1;entryX=1;entryY=0.5;entryDx=0;entryDy=0;exitX=0;exitY=0.5;exitDx=0;exitDy=0;fillColor=#E6E6E6;" edge="1" parent="1" source="iA2o2llxOR7NwnTCzI-V-44" target="iA2o2llxOR7NwnTCzI-V-8">
          <mxGeometry relative="1" as="geometry">
            <mxPoint x="1350" y="310" as="sourcePoint" />
          </mxGeometry>
        </mxCell>
        <mxCell id="iA2o2llxOR7NwnTCzI-V-44" value="数据展示" style="rounded=0;whiteSpace=wrap;html=1;fillColor=#E6E6E6;" vertex="1" parent="1">
          <mxGeometry x="1350" y="280" width="120" height="60" as="geometry" />
        </mxCell>
        <mxCell id="iA2o2llxOR7NwnTCzI-V-45" value="" style="edgeStyle=orthogonalEdgeStyle;rounded=0;orthogonalLoop=1;jettySize=auto;html=1;" edge="1" parent="1" source="iA2o2llxOR7NwnTCzI-V-46" target="iA2o2llxOR7NwnTCzI-V-47">
          <mxGeometry relative="1" as="geometry" />
        </mxCell>
        <mxCell id="iA2o2llxOR7NwnTCzI-V-46" value="模型展示" style="rounded=0;whiteSpace=wrap;html=1;" vertex="1" parent="1">
          <mxGeometry x="1350" y="380" width="120" height="60" as="geometry" />
        </mxCell>
        <mxCell id="iA2o2llxOR7NwnTCzI-V-47" value="日常运维" style="rounded=0;whiteSpace=wrap;html=1;" vertex="1" parent="1">
          <mxGeometry x="1350" y="470" width="120" height="60" as="geometry" />
        </mxCell>
        <mxCell id="iA2o2llxOR7NwnTCzI-V-48" value="数据门户" style="text;html=1;align=center;verticalAlign=middle;resizable=0;points=[];autosize=1;fillColor=none;" vertex="1" parent="1">
          <mxGeometry x="1293" y="270" width="60" height="20" as="geometry" />
        </mxCell>
        <mxCell id="iA2o2llxOR7NwnTCzI-V-49" value="业务流转" style="text;html=1;align=center;verticalAlign=middle;resizable=0;points=[];autosize=1;" vertex="1" parent="1">
          <mxGeometry x="870" y="270" width="60" height="20" as="geometry" />
        </mxCell>
        <mxCell id="iA2o2llxOR7NwnTCzI-V-50" value="定制化配置" style="text;html=1;align=center;verticalAlign=middle;resizable=0;points=[];autosize=1;" vertex="1" parent="1">
          <mxGeometry x="1470" y="630" width="80" height="20" as="geometry" />
        </mxCell>
      </root>
    </mxGraphModel>
  </diagram>
</mxfile>
